STARTFONT 2.1
FONT -FontForge-Jersey 20-Book-R-Normal--16-150-75-75-P-65-ISO10646-1
SIZE 15 75 75
FONTBOUNDINGBOX 18 16 -2 -3
COMMENT "Generated by fontforge, http://fontforge.sourceforge.net"
COMMENT "Copyright 2023 The Soft Type Project Authors (https://github.com/scfried/soft-type-jersey)"
STARTPROPERTIES 39
FOUNDRY "FontForge"
FAMILY_NAME "Jersey 20"
WEIGHT_NAME "Book"
SLANT "R"
SETWIDTH_NAME "Normal"
ADD_STYLE_NAME ""
PIXEL_SIZE 16
POINT_SIZE 150
RESOLUTION_X 75
RESOLUTION_Y 75
SPACING "P"
AVERAGE_WIDTH 65
CHARSET_REGISTRY "ISO10646"
CHARSET_ENCODING "1"
FONTNAME_REGISTRY ""
CHARSET_COLLECTIONS "ISO8859-2 ISO8859-9 ISO8859-4 ISO10646-1"
FONT_NAME "Jersey20-Regular"
FACE_NAME "Jersey 20 Regular"
COPYRIGHT "Copyright 2023 The Soft Type Project Authors (https://github.com/scfried/soft-type-jersey)"
FONT_VERSION "1.001; ttfautohint (v1.8.4.7-5d5b)"
FONT_ASCENT 13
FONT_DESCENT 3
UNDERLINE_POSITION -2
UNDERLINE_THICKNESS 1
X_HEIGHT 7
CAP_HEIGHT 9
RAW_ASCENT 794
RAW_DESCENT 205
NORM_SPACE 3
RELATIVE_WEIGHT 40
RELATIVE_SETWIDTH 50
SUPERSCRIPT_X 0
SUPERSCRIPT_Y 5
SUPERSCRIPT_SIZE 9
SUBSCRIPT_X 0
SUBSCRIPT_Y 1
SUBSCRIPT_SIZE 9
AVG_LOWERCASE_WIDTH 72
AVG_UPPERCASE_WIDTH 76
ENDPROPERTIES
CHARS 359
STARTCHAR space
ENCODING 32
SWIDTH 205 0
DWIDTH 3 0
BBX 1 1 0 0
BITMAP
00
ENDCHAR
STARTCHAR exclam
ENCODING 33
SWIDTH 205 0
DWIDTH 3 0
BBX 2 10 0 0
BITMAP
C0
C0
C0
C0
C0
C0
C0
00
C0
C0
ENDCHAR
STARTCHAR quotedbl
ENCODING 34
SWIDTH 352 0
DWIDTH 6 0
BBX 5 3 0 7
BITMAP
D8
D8
50
ENDCHAR
STARTCHAR numbersign
ENCODING 35
SWIDTH 647 0
DWIDTH 10 0
BBX 10 10 0 0
BITMAP
1980
1980
1980
7FC0
3300
3300
FF80
6600
6600
6600
ENDCHAR
STARTCHAR dollar
ENCODING 36
SWIDTH 500 0
DWIDTH 8 0
BBX 7 10 0 0
BITMAP
3C
7E
D6
D0
FE
7E
16
D6
7E
3C
ENDCHAR
STARTCHAR percent
ENCODING 37
SWIDTH 647 0
DWIDTH 10 0
BBX 10 10 0 0
BITMAP
3100
7A00
DA00
7C00
0400
0900
0B80
14C0
1380
2100
ENDCHAR
STARTCHAR ampersand
ENCODING 38
SWIDTH 617 0
DWIDTH 10 0
BBX 9 10 0 0
BITMAP
3800
7C00
7C00
3C00
3D00
7F00
CE00
6E00
7F80
3F80
ENDCHAR
STARTCHAR quotesingle
ENCODING 39
SWIDTH 205 0
DWIDTH 3 0
BBX 2 3 0 7
BITMAP
C0
C0
40
ENDCHAR
STARTCHAR parenleft
ENCODING 40
SWIDTH 294 0
DWIDTH 5 0
BBX 4 11 0 -1
BITMAP
30
60
C0
C0
C0
C0
C0
C0
C0
C0
70
ENDCHAR
STARTCHAR parenright
ENCODING 41
SWIDTH 294 0
DWIDTH 5 0
BBX 4 11 0 -1
BITMAP
C0
60
30
30
30
30
30
30
30
30
E0
ENDCHAR
STARTCHAR asterisk
ENCODING 42
SWIDTH 382 0
DWIDTH 6 0
BBX 4 4 1 6
BITMAP
40
F0
60
D0
ENDCHAR
STARTCHAR plus
ENCODING 43
SWIDTH 470 0
DWIDTH 8 0
BBX 6 6 1 2
BITMAP
30
30
FC
FC
30
30
ENDCHAR
STARTCHAR comma
ENCODING 44
SWIDTH 205 0
DWIDTH 3 0
BBX 2 3 0 -1
BITMAP
C0
C0
80
ENDCHAR
STARTCHAR hyphen
ENCODING 45
SWIDTH 441 0
DWIDTH 7 0
BBX 6 2 0 4
BITMAP
FC
FC
ENDCHAR
STARTCHAR period
ENCODING 46
SWIDTH 205 0
DWIDTH 3 0
BBX 2 2 0 0
BITMAP
C0
C0
ENDCHAR
STARTCHAR slash
ENCODING 47
SWIDTH 382 0
DWIDTH 6 0
BBX 5 10 0 -1
BITMAP
18
18
18
30
30
30
60
60
60
C0
ENDCHAR
STARTCHAR zero
ENCODING 48
SWIDTH 441 0
DWIDTH 7 0
BBX 7 11 0 0
BITMAP
38
7C
EE
C6
C6
C6
C6
C6
EE
7C
38
ENDCHAR
STARTCHAR one
ENCODING 49
SWIDTH 294 0
DWIDTH 5 0
BBX 3 11 1 0
BITMAP
E0
E0
60
60
60
60
60
60
60
60
60
ENDCHAR
STARTCHAR two
ENCODING 50
SWIDTH 470 0
DWIDTH 8 0
BBX 7 11 0 0
BITMAP
7C
FE
C6
C6
0E
1C
38
70
E0
FE
FE
ENDCHAR
STARTCHAR three
ENCODING 51
SWIDTH 470 0
DWIDTH 8 0
BBX 7 11 0 0
BITMAP
7C
FE
C6
06
3E
3C
06
06
C6
FE
7C
ENDCHAR
STARTCHAR four
ENCODING 52
SWIDTH 441 0
DWIDTH 7 0
BBX 7 11 0 0
BITMAP
0E
1E
3E
76
E6
C6
C6
FE
FE
06
06
ENDCHAR
STARTCHAR five
ENCODING 53
SWIDTH 470 0
DWIDTH 8 0
BBX 8 11 0 0
BITMAP
FF
FF
C0
C0
FE
7F
03
03
C3
FF
7E
ENDCHAR
STARTCHAR six
ENCODING 54
SWIDTH 470 0
DWIDTH 8 0
BBX 8 11 0 0
BITMAP
3E
7F
E3
C0
DE
FF
E3
C3
C3
FF
7E
ENDCHAR
STARTCHAR seven
ENCODING 55
SWIDTH 441 0
DWIDTH 7 0
BBX 7 11 0 0
BITMAP
FE
FE
06
0E
1C
18
38
30
30
30
30
ENDCHAR
STARTCHAR eight
ENCODING 56
SWIDTH 470 0
DWIDTH 8 0
BBX 8 11 0 0
BITMAP
7E
E7
C3
C3
66
3C
66
C3
C3
E7
7E
ENDCHAR
STARTCHAR nine
ENCODING 57
SWIDTH 470 0
DWIDTH 8 0
BBX 8 11 0 0
BITMAP
7E
FF
C3
C3
C3
FF
7F
03
C3
FF
7E
ENDCHAR
STARTCHAR colon
ENCODING 58
SWIDTH 205 0
DWIDTH 3 0
BBX 2 8 0 0
BITMAP
C0
C0
00
00
00
00
C0
C0
ENDCHAR
STARTCHAR semicolon
ENCODING 59
SWIDTH 205 0
DWIDTH 3 0
BBX 2 9 0 -1
BITMAP
C0
C0
00
00
00
00
C0
C0
80
ENDCHAR
STARTCHAR less
ENCODING 60
SWIDTH 441 0
DWIDTH 7 0
BBX 6 6 0 2
BITMAP
0C
3C
F0
F0
3C
0C
ENDCHAR
STARTCHAR equal
ENCODING 61
SWIDTH 470 0
DWIDTH 8 0
BBX 6 4 1 3
BITMAP
FC
00
00
FC
ENDCHAR
STARTCHAR greater
ENCODING 62
SWIDTH 441 0
DWIDTH 7 0
BBX 6 6 0 2
BITMAP
C0
F0
3C
3C
F0
C0
ENDCHAR
STARTCHAR question
ENCODING 63
SWIDTH 441 0
DWIDTH 7 0
BBX 6 10 0 0
BITMAP
38
7C
CC
1C
1C
30
10
00
30
30
ENDCHAR
STARTCHAR at
ENCODING 64
SWIDTH 705 0
DWIDTH 11 0
BBX 9 10 1 0
BITMAP
7F00
C180
9E80
B280
A280
A280
BF80
9B00
C000
7F00
ENDCHAR
STARTCHAR A
ENCODING 65
SWIDTH 470 0
DWIDTH 8 0
BBX 7 10 0 0
BITMAP
38
7C
EE
C6
C6
FE
FE
C6
C6
C6
ENDCHAR
STARTCHAR B
ENCODING 66
SWIDTH 470 0
DWIDTH 8 0
BBX 7 10 0 0
BITMAP
FC
FE
C6
C6
FC
FE
C6
C6
FE
FC
ENDCHAR
STARTCHAR C
ENCODING 67
SWIDTH 470 0
DWIDTH 8 0
BBX 7 10 0 0
BITMAP
3C
7E
E6
C0
C0
C0
C0
E6
7E
3C
ENDCHAR
STARTCHAR D
ENCODING 68
SWIDTH 470 0
DWIDTH 8 0
BBX 7 10 0 0
BITMAP
F8
FC
CE
C6
C6
C6
C6
CE
FC
F8
ENDCHAR
STARTCHAR E
ENCODING 69
SWIDTH 441 0
DWIDTH 7 0
BBX 6 10 0 0
BITMAP
FC
FC
C0
C0
F8
F8
C0
C0
FC
FC
ENDCHAR
STARTCHAR F
ENCODING 70
SWIDTH 411 0
DWIDTH 7 0
BBX 6 10 0 0
BITMAP
FC
FC
C0
C0
F8
F8
C0
C0
C0
C0
ENDCHAR
STARTCHAR G
ENCODING 71
SWIDTH 470 0
DWIDTH 8 0
BBX 7 10 0 0
BITMAP
3C
7E
E6
C0
DE
DE
C6
E6
7E
3C
ENDCHAR
STARTCHAR H
ENCODING 72
SWIDTH 470 0
DWIDTH 8 0
BBX 7 10 0 0
BITMAP
C6
C6
C6
C6
FE
FE
C6
C6
C6
C6
ENDCHAR
STARTCHAR I
ENCODING 73
SWIDTH 205 0
DWIDTH 3 0
BBX 2 10 0 0
BITMAP
C0
C0
C0
C0
C0
C0
C0
C0
C0
C0
ENDCHAR
STARTCHAR J
ENCODING 74
SWIDTH 441 0
DWIDTH 7 0
BBX 5 10 1 0
BITMAP
18
18
18
18
18
18
18
D8
F8
70
ENDCHAR
STARTCHAR K
ENCODING 75
SWIDTH 441 0
DWIDTH 7 0
BBX 6 10 0 0
BITMAP
CC
CC
CC
DC
F8
F8
DC
CC
CC
CC
ENDCHAR
STARTCHAR L
ENCODING 76
SWIDTH 382 0
DWIDTH 6 0
BBX 5 10 0 0
BITMAP
C0
C0
C0
C0
C0
C0
C0
C0
F8
F8
ENDCHAR
STARTCHAR M
ENCODING 77
SWIDTH 647 0
DWIDTH 10 0
BBX 9 10 0 0
BITMAP
C180
E380
FF80
FF80
DD80
C980
C180
C180
C180
C180
ENDCHAR
STARTCHAR N
ENCODING 78
SWIDTH 529 0
DWIDTH 8 0
BBX 8 10 0 0
BITMAP
E3
E3
F3
F3
DB
DB
CF
CF
C7
C7
ENDCHAR
STARTCHAR O
ENCODING 79
SWIDTH 470 0
DWIDTH 8 0
BBX 8 10 0 0
BITMAP
3C
7E
E7
C3
C3
C3
C3
E7
7E
3C
ENDCHAR
STARTCHAR P
ENCODING 80
SWIDTH 470 0
DWIDTH 8 0
BBX 7 10 0 0
BITMAP
FC
FE
C6
C6
C6
FE
FC
C0
C0
C0
ENDCHAR
STARTCHAR Q
ENCODING 81
SWIDTH 500 0
DWIDTH 8 0
BBX 8 10 0 0
BITMAP
3C
7E
E7
C3
C3
CB
E7
7E
3B
01
ENDCHAR
STARTCHAR R
ENCODING 82
SWIDTH 470 0
DWIDTH 8 0
BBX 7 10 0 0
BITMAP
FC
FE
C6
C6
C6
FC
FC
CE
C6
C6
ENDCHAR
STARTCHAR S
ENCODING 83
SWIDTH 500 0
DWIDTH 8 0
BBX 7 10 0 0
BITMAP
7C
FE
C6
C0
FC
7E
06
C6
FE
7C
ENDCHAR
STARTCHAR T
ENCODING 84
SWIDTH 441 0
DWIDTH 7 0
BBX 6 10 0 0
BITMAP
FC
FC
30
30
30
30
30
30
30
30
ENDCHAR
STARTCHAR U
ENCODING 85
SWIDTH 470 0
DWIDTH 8 0
BBX 7 10 0 0
BITMAP
C6
C6
C6
C6
C6
C6
C6
C6
FE
7C
ENDCHAR
STARTCHAR V
ENCODING 86
SWIDTH 470 0
DWIDTH 8 0
BBX 7 10 0 0
BITMAP
C6
C6
C6
C6
C6
C6
EE
7C
38
10
ENDCHAR
STARTCHAR W
ENCODING 87
SWIDTH 617 0
DWIDTH 10 0
BBX 10 10 0 0
BITMAP
CCC0
CCC0
CCC0
CCC0
CCC0
CCC0
CCC0
CCC0
FFC0
7380
ENDCHAR
STARTCHAR X
ENCODING 88
SWIDTH 470 0
DWIDTH 8 0
BBX 7 10 0 0
BITMAP
C6
C6
EE
7C
38
38
7C
EE
C6
C6
ENDCHAR
STARTCHAR Y
ENCODING 89
SWIDTH 500 0
DWIDTH 8 0
BBX 8 10 0 0
BITMAP
C3
C3
C3
C3
E7
7E
3C
18
18
18
ENDCHAR
STARTCHAR Z
ENCODING 90
SWIDTH 500 0
DWIDTH 8 0
BBX 7 10 0 0
BITMAP
FE
FE
06
0E
1C
38
70
E0
FE
FE
ENDCHAR
STARTCHAR bracketleft
ENCODING 91
SWIDTH 323 0
DWIDTH 5 0
BBX 4 11 0 -1
BITMAP
F0
C0
C0
C0
C0
C0
C0
C0
C0
F0
F0
ENDCHAR
STARTCHAR backslash
ENCODING 92
SWIDTH 382 0
DWIDTH 6 0
BBX 6 9 0 0
BITMAP
C0
60
60
60
30
30
10
38
0C
ENDCHAR
STARTCHAR bracketright
ENCODING 93
SWIDTH 323 0
DWIDTH 5 0
BBX 4 11 0 -1
BITMAP
F0
30
30
30
30
30
30
30
30
F0
F0
ENDCHAR
STARTCHAR asciicircum
ENCODING 94
SWIDTH 500 0
DWIDTH 8 0
BBX 6 3 1 6
BITMAP
70
FC
DC
ENDCHAR
STARTCHAR underscore
ENCODING 95
SWIDTH 470 0
DWIDTH 8 0
BBX 6 2 1 -1
BITMAP
FC
FC
ENDCHAR
STARTCHAR grave
ENCODING 96
SWIDTH 235 0
DWIDTH 4 0
BBX 3 3 1 8
BITMAP
80
C0
60
ENDCHAR
STARTCHAR a
ENCODING 97
SWIDTH 470 0
DWIDTH 8 0
BBX 7 8 0 0
BITMAP
3C
7E
C6
06
7E
C6
7E
3E
ENDCHAR
STARTCHAR b
ENCODING 98
SWIDTH 470 0
DWIDTH 8 0
BBX 7 10 0 0
BITMAP
C0
C0
DC
FC
C6
C6
C6
C6
FC
F8
ENDCHAR
STARTCHAR c
ENCODING 99
SWIDTH 441 0
DWIDTH 7 0
BBX 7 8 0 0
BITMAP
3C
7E
C6
C0
C0
C6
7E
3C
ENDCHAR
STARTCHAR d
ENCODING 100
SWIDTH 470 0
DWIDTH 8 0
BBX 7 10 0 0
BITMAP
06
06
3E
7E
C6
C6
C6
C6
7E
3E
ENDCHAR
STARTCHAR e
ENCODING 101
SWIDTH 441 0
DWIDTH 7 0
BBX 7 8 0 0
BITMAP
3C
7E
C6
FE
C0
C6
7E
3C
ENDCHAR
STARTCHAR f
ENCODING 102
SWIDTH 323 0
DWIDTH 5 0
BBX 4 10 1 0
BITMAP
30
70
C0
F0
C0
C0
C0
C0
C0
C0
ENDCHAR
STARTCHAR g
ENCODING 103
SWIDTH 470 0
DWIDTH 8 0
BBX 7 10 0 -2
BITMAP
3E
7E
C6
C6
C6
6C
7E
C6
7E
3C
ENDCHAR
STARTCHAR h
ENCODING 104
SWIDTH 470 0
DWIDTH 8 0
BBX 7 10 0 0
BITMAP
C0
C0
DC
FC
C6
C6
C6
C6
C6
7E
ENDCHAR
STARTCHAR i
ENCODING 105
SWIDTH 205 0
DWIDTH 3 0
BBX 2 10 0 0
BITMAP
C0
C0
00
C0
C0
C0
C0
C0
C0
C0
ENDCHAR
STARTCHAR j
ENCODING 106
SWIDTH 235 0
DWIDTH 4 0
BBX 2 12 1 -2
BITMAP
C0
C0
00
C0
C0
C0
C0
C0
C0
C0
C0
C0
ENDCHAR
STARTCHAR k
ENCODING 107
SWIDTH 411 0
DWIDTH 7 0
BBX 6 10 0 0
BITMAP
C0
C0
CC
CC
DC
78
78
D8
CC
CC
ENDCHAR
STARTCHAR l
ENCODING 108
SWIDTH 205 0
DWIDTH 3 0
BBX 2 10 0 0
BITMAP
C0
C0
C0
C0
C0
C0
C0
C0
C0
C0
ENDCHAR
STARTCHAR m
ENCODING 109
SWIDTH 617 0
DWIDTH 10 0
BBX 9 8 0 0
BITMAP
DB00
FF00
CD80
CD80
CD80
CD80
CD80
7F80
ENDCHAR
STARTCHAR n
ENCODING 110
SWIDTH 470 0
DWIDTH 8 0
BBX 7 8 0 0
BITMAP
DC
FC
C6
C6
C6
C6
C6
7E
ENDCHAR
STARTCHAR o
ENCODING 111
SWIDTH 470 0
DWIDTH 8 0
BBX 7 8 0 0
BITMAP
3C
7E
C6
C6
C6
C6
7E
3C
ENDCHAR
STARTCHAR p
ENCODING 112
SWIDTH 470 0
DWIDTH 8 0
BBX 7 10 0 -2
BITMAP
DC
FC
C6
C6
C6
C6
FC
F8
C0
C0
ENDCHAR
STARTCHAR q
ENCODING 113
SWIDTH 470 0
DWIDTH 8 0
BBX 7 10 0 -2
BITMAP
3E
7E
C6
C6
C6
C6
7E
3E
06
06
ENDCHAR
STARTCHAR r
ENCODING 114
SWIDTH 352 0
DWIDTH 6 0
BBX 6 8 0 0
BITMAP
D8
FC
CC
C0
C0
C0
C0
C0
ENDCHAR
STARTCHAR s
ENCODING 115
SWIDTH 470 0
DWIDTH 8 0
BBX 7 8 0 0
BITMAP
3C
7E
C6
7C
3E
C6
7E
3C
ENDCHAR
STARTCHAR t
ENCODING 116
SWIDTH 352 0
DWIDTH 6 0
BBX 4 9 1 0
BITMAP
40
C0
F0
C0
C0
C0
C0
70
30
ENDCHAR
STARTCHAR u
ENCODING 117
SWIDTH 470 0
DWIDTH 8 0
BBX 7 8 0 0
BITMAP
C6
C6
C6
C6
C6
C6
7E
3E
ENDCHAR
STARTCHAR v
ENCODING 118
SWIDTH 470 0
DWIDTH 8 0
BBX 7 8 0 0
BITMAP
C6
C6
C6
C6
C6
7C
3C
18
ENDCHAR
STARTCHAR w
ENCODING 119
SWIDTH 617 0
DWIDTH 10 0
BBX 9 8 0 0
BITMAP
CD80
CD80
CD80
CD80
CD80
7D80
7700
2200
ENDCHAR
STARTCHAR x
ENCODING 120
SWIDTH 470 0
DWIDTH 8 0
BBX 7 8 0 0
BITMAP
C6
C6
7C
3C
3C
7C
C6
C6
ENDCHAR
STARTCHAR y
ENCODING 121
SWIDTH 470 0
DWIDTH 8 0
BBX 7 10 0 -2
BITMAP
C6
C6
C6
C6
C6
7C
3C
70
60
40
ENDCHAR
STARTCHAR z
ENCODING 122
SWIDTH 441 0
DWIDTH 7 0
BBX 6 8 0 0
BITMAP
FC
FC
0C
18
30
60
FC
FC
ENDCHAR
STARTCHAR braceleft
ENCODING 123
SWIDTH 294 0
DWIDTH 5 0
BBX 3 11 1 -1
BITMAP
60
C0
C0
C0
40
80
C0
C0
C0
C0
C0
ENDCHAR
STARTCHAR bar
ENCODING 124
SWIDTH 352 0
DWIDTH 6 0
BBX 2 11 2 -1
BITMAP
C0
C0
C0
C0
C0
C0
C0
C0
C0
C0
C0
ENDCHAR
STARTCHAR braceright
ENCODING 125
SWIDTH 294 0
DWIDTH 5 0
BBX 4 11 0 -1
BITMAP
C0
60
60
60
20
10
30
60
60
60
60
ENDCHAR
STARTCHAR asciitilde
ENCODING 126
SWIDTH 558 0
DWIDTH 9 0
BBX 7 4 1 3
BITMAP
20
FC
FE
5C
ENDCHAR
STARTCHAR uni00A0
ENCODING 160
SWIDTH 205 0
DWIDTH 3 0
BBX 1 1 0 0
BITMAP
00
ENDCHAR
STARTCHAR exclamdown
ENCODING 161
SWIDTH 205 0
DWIDTH 3 0
BBX 2 10 0 0
BITMAP
C0
C0
00
40
40
C0
C0
C0
C0
C0
ENDCHAR
STARTCHAR cent
ENCODING 162
SWIDTH 470 0
DWIDTH 8 0
BBX 6 8 1 0
BITMAP
78
FC
B8
B0
B8
FC
78
30
ENDCHAR
STARTCHAR sterling
ENCODING 163
SWIDTH 500 0
DWIDTH 8 0
BBX 6 10 1 0
BITMAP
78
FC
C8
C0
F8
C0
60
C0
FC
FC
ENDCHAR
STARTCHAR yen
ENCODING 165
SWIDTH 500 0
DWIDTH 8 0
BBX 7 10 0 0
BITMAP
C6
C6
C6
7C
3C
FE
FE
FE
FE
18
ENDCHAR
STARTCHAR section
ENCODING 167
SWIDTH 441 0
DWIDTH 7 0
BBX 6 11 0 -1
BITMAP
38
7C
C0
78
7C
CC
7C
3C
0C
7C
38
ENDCHAR
STARTCHAR dieresis
ENCODING 168
SWIDTH 352 0
DWIDTH 6 0
BBX 5 2 0 8
BITMAP
D8
48
ENDCHAR
STARTCHAR copyright
ENCODING 169
SWIDTH 735 0
DWIDTH 12 0
BBX 10 10 1 0
BITMAP
7F80
C180
9E40
BB40
B040
B240
BE40
9C40
C180
7F80
ENDCHAR
STARTCHAR ordfeminine
ENCODING 170
SWIDTH 470 0
DWIDTH 8 0
BBX 7 8 0 0
BITMAP
3C
7E
C6
06
7E
C6
7E
3E
ENDCHAR
STARTCHAR guillemotleft
ENCODING 171
SWIDTH 529 0
DWIDTH 8 0
BBX 8 7 0 1
BITMAP
12
33
66
CC
66
33
12
ENDCHAR
STARTCHAR registered
ENCODING 174
SWIDTH 529 0
DWIDTH 8 0
BBX 7 7 1 3
BITMAP
38
FE
BC
B4
B4
CC
7C
ENDCHAR
STARTCHAR macron
ENCODING 175
SWIDTH 294 0
DWIDTH 5 0
BBX 4 2 0 8
BITMAP
F0
F0
ENDCHAR
STARTCHAR degree
ENCODING 176
SWIDTH 352 0
DWIDTH 6 0
BBX 4 4 1 6
BITMAP
60
F0
90
F0
ENDCHAR
STARTCHAR acute
ENCODING 180
SWIDTH 235 0
DWIDTH 4 0
BBX 3 3 1 8
BITMAP
60
C0
80
ENDCHAR
STARTCHAR paragraph
ENCODING 182
SWIDTH 470 0
DWIDTH 8 0
BBX 6 10 0 0
BITMAP
3C
7C
F4
7C
3C
1C
1C
1C
1C
1C
ENDCHAR
STARTCHAR periodcentered
ENCODING 183
SWIDTH 205 0
DWIDTH 3 0
BBX 2 2 0 4
BITMAP
C0
C0
ENDCHAR
STARTCHAR cedilla
ENCODING 184
SWIDTH 235 0
DWIDTH 4 0
BBX 3 3 1 -2
BITMAP
C0
60
C0
ENDCHAR
STARTCHAR ordmasculine
ENCODING 186
SWIDTH 470 0
DWIDTH 8 0
BBX 7 8 0 0
BITMAP
3C
7E
C6
C6
C6
C6
7E
3C
ENDCHAR
STARTCHAR guillemotright
ENCODING 187
SWIDTH 529 0
DWIDTH 8 0
BBX 8 7 0 1
BITMAP
48
CC
66
33
66
CC
48
ENDCHAR
STARTCHAR questiondown
ENCODING 191
SWIDTH 441 0
DWIDTH 7 0
BBX 6 10 0 0
BITMAP
30
30
00
10
38
70
C0
7C
7C
38
ENDCHAR
STARTCHAR Agrave
ENCODING 192
SWIDTH 470 0
DWIDTH 8 0
BBX 7 12 0 0
BITMAP
30
08
18
3C
EE
C6
C6
7E
7E
C6
C6
C6
ENDCHAR
STARTCHAR Aacute
ENCODING 193
SWIDTH 470 0
DWIDTH 8 0
BBX 7 12 0 0
BITMAP
18
18
18
3C
EE
C6
C6
7E
7E
C6
C6
C6
ENDCHAR
STARTCHAR Acircumflex
ENCODING 194
SWIDTH 470 0
DWIDTH 8 0
BBX 7 12 0 0
BITMAP
18
28
18
3C
EE
C6
C6
7E
7E
C6
C6
C6
ENDCHAR
STARTCHAR Atilde
ENCODING 195
SWIDTH 470 0
DWIDTH 8 0
BBX 7 12 0 0
BITMAP
3C
38
18
3C
EE
C6
C6
7E
7E
C6
C6
C6
ENDCHAR
STARTCHAR Adieresis
ENCODING 196
SWIDTH 470 0
DWIDTH 8 0
BBX 7 12 0 0
BITMAP
6C
28
18
3C
EE
C6
C6
7E
7E
C6
C6
C6
ENDCHAR
STARTCHAR Aring
ENCODING 197
SWIDTH 470 0
DWIDTH 8 0
BBX 7 13 0 0
BITMAP
38
28
18
18
3C
EE
C6
C6
7E
7E
C6
C6
C6
ENDCHAR
STARTCHAR AE
ENCODING 198
SWIDTH 676 0
DWIDTH 11 0
BBX 10 10 0 0
BITMAP
1FC0
3FC0
EE00
C600
C7C0
FF80
7E00
C600
C7C0
C7C0
ENDCHAR
STARTCHAR Ccedilla
ENCODING 199
SWIDTH 470 0
DWIDTH 8 0
BBX 7 12 0 -2
BITMAP
3C
7E
C6
C0
C0
C0
C6
6C
7E
3C
18
18
ENDCHAR
STARTCHAR Egrave
ENCODING 200
SWIDTH 441 0
DWIDTH 7 0
BBX 6 12 0 0
BITMAP
30
08
FC
FC
C0
C0
F8
F8
C0
C0
FC
FC
ENDCHAR
STARTCHAR Eacute
ENCODING 201
SWIDTH 441 0
DWIDTH 7 0
BBX 6 12 0 0
BITMAP
18
10
FC
FC
C0
C0
F8
F8
C0
C0
FC
FC
ENDCHAR
STARTCHAR Ecircumflex
ENCODING 202
SWIDTH 441 0
DWIDTH 7 0
BBX 6 12 0 0
BITMAP
30
28
FC
FC
C0
C0
F8
F8
C0
C0
FC
FC
ENDCHAR
STARTCHAR Edieresis
ENCODING 203
SWIDTH 441 0
DWIDTH 7 0
BBX 6 12 0 0
BITMAP
6C
48
FC
FC
C0
C0
F8
F8
C0
C0
FC
FC
ENDCHAR
STARTCHAR Igrave
ENCODING 204
SWIDTH 205 0
DWIDTH 3 0
BBX 3 12 0 0
BITMAP
C0
20
C0
C0
C0
C0
C0
C0
C0
C0
C0
C0
ENDCHAR
STARTCHAR Iacute
ENCODING 205
SWIDTH 205 0
DWIDTH 3 0
BBX 3 12 0 0
BITMAP
60
40
C0
C0
C0
C0
C0
C0
C0
C0
C0
C0
ENDCHAR
STARTCHAR Icircumflex
ENCODING 206
SWIDTH 205 0
DWIDTH 3 0
BBX 3 12 0 0
BITMAP
60
A0
60
60
60
60
60
60
60
60
60
60
ENDCHAR
STARTCHAR Idieresis
ENCODING 207
SWIDTH 205 0
DWIDTH 3 0
BBX 5 12 -1 0
BITMAP
D8
48
30
30
30
30
30
30
30
30
30
30
ENDCHAR
STARTCHAR Eth
ENCODING 208
SWIDTH 500 0
DWIDTH 8 0
BBX 7 10 1 0
BITMAP
F8
FC
C6
C6
F6
C6
C6
CC
FC
F8
ENDCHAR
STARTCHAR Ntilde
ENCODING 209
SWIDTH 529 0
DWIDTH 8 0
BBX 8 12 0 0
BITMAP
3C
28
63
E3
73
F3
DB
DB
CF
CE
C7
C6
ENDCHAR
STARTCHAR Ograve
ENCODING 210
SWIDTH 470 0
DWIDTH 8 0
BBX 7 12 0 0
BITMAP
18
18
3C
7E
C6
C6
C6
C6
C6
6C
7E
3C
ENDCHAR
STARTCHAR Oacute
ENCODING 211
SWIDTH 470 0
DWIDTH 8 0
BBX 7 12 0 0
BITMAP
18
18
3C
7E
C6
C6
C6
C6
C6
6C
7E
3C
ENDCHAR
STARTCHAR Ocircumflex
ENCODING 212
SWIDTH 470 0
DWIDTH 8 0
BBX 7 12 0 0
BITMAP
18
28
3C
7E
C6
C6
C6
C6
C6
6C
7E
3C
ENDCHAR
STARTCHAR Otilde
ENCODING 213
SWIDTH 470 0
DWIDTH 8 0
BBX 7 12 0 0
BITMAP
3C
38
3C
7E
C6
C6
C6
C6
C6
6C
7E
3C
ENDCHAR
STARTCHAR Odieresis
ENCODING 214
SWIDTH 470 0
DWIDTH 8 0
BBX 7 12 0 0
BITMAP
6C
28
3C
7E
C6
C6
C6
C6
C6
6C
7E
3C
ENDCHAR
STARTCHAR multiply
ENCODING 215
SWIDTH 441 0
DWIDTH 7 0
BBX 6 7 0 1
BITMAP
44
CC
78
30
78
CC
44
ENDCHAR
STARTCHAR Oslash
ENCODING 216
SWIDTH 588 0
DWIDTH 9 0
BBX 9 10 1 0
BITMAP
3980
7F00
6600
6E00
7E00
7E00
7600
E600
FE00
F800
ENDCHAR
STARTCHAR Ugrave
ENCODING 217
SWIDTH 470 0
DWIDTH 8 0
BBX 7 12 0 0
BITMAP
18
18
C6
C6
C6
C6
C6
C6
C6
6C
7E
3C
ENDCHAR
STARTCHAR Uacute
ENCODING 218
SWIDTH 470 0
DWIDTH 8 0
BBX 7 12 0 0
BITMAP
18
18
C6
C6
C6
C6
C6
C6
C6
6C
7E
3C
ENDCHAR
STARTCHAR Ucircumflex
ENCODING 219
SWIDTH 470 0
DWIDTH 8 0
BBX 7 13 0 0
BITMAP
18
38
00
C6
C6
C6
C6
C6
C6
C6
6C
7E
3C
ENDCHAR
STARTCHAR Udieresis
ENCODING 220
SWIDTH 470 0
DWIDTH 8 0
BBX 7 13 0 0
BITMAP
28
6C
00
C6
C6
C6
C6
C6
C6
C6
6C
7E
3C
ENDCHAR
STARTCHAR Yacute
ENCODING 221
SWIDTH 500 0
DWIDTH 8 0
BBX 7 12 0 0
BITMAP
18
18
C6
C6
C6
C6
EE
7C
38
18
18
18
ENDCHAR
STARTCHAR Thorn
ENCODING 222
SWIDTH 470 0
DWIDTH 8 0
BBX 7 10 0 0
BITMAP
C0
C0
FC
7E
C6
CC
FC
F8
C0
C0
ENDCHAR
STARTCHAR germandbls
ENCODING 223
SWIDTH 470 0
DWIDTH 8 0
BBX 7 10 0 0
BITMAP
3C
7E
C6
CE
DC
CE
C6
CE
DC
D8
ENDCHAR
STARTCHAR agrave
ENCODING 224
SWIDTH 470 0
DWIDTH 8 0
BBX 7 11 0 0
BITMAP
10
18
18
3C
7E
C6
06
7E
C6
7E
3E
ENDCHAR
STARTCHAR aacute
ENCODING 225
SWIDTH 470 0
DWIDTH 8 0
BBX 7 11 0 0
BITMAP
18
18
10
3C
7E
C6
06
7E
C6
7E
3E
ENDCHAR
STARTCHAR acircumflex
ENCODING 226
SWIDTH 470 0
DWIDTH 8 0
BBX 7 10 0 0
BITMAP
18
28
3C
7E
C6
06
7E
C6
7E
3E
ENDCHAR
STARTCHAR atilde
ENCODING 227
SWIDTH 470 0
DWIDTH 8 0
BBX 7 10 0 0
BITMAP
3C
38
3C
7E
C6
06
7E
C6
7E
3E
ENDCHAR
STARTCHAR adieresis
ENCODING 228
SWIDTH 470 0
DWIDTH 8 0
BBX 7 10 0 0
BITMAP
6C
28
3C
7E
C6
06
7E
C6
7E
3E
ENDCHAR
STARTCHAR aring
ENCODING 229
SWIDTH 470 0
DWIDTH 8 0
BBX 7 11 0 0
BITMAP
38
28
18
3C
7E
C6
06
7E
C6
7E
3E
ENDCHAR
STARTCHAR ae
ENCODING 230
SWIDTH 735 0
DWIDTH 12 0
BBX 11 8 0 0
BITMAP
3F80
7FE0
C660
07E0
7E00
C660
7FE0
3FC0
ENDCHAR
STARTCHAR ccedilla
ENCODING 231
SWIDTH 441 0
DWIDTH 7 0
BBX 7 10 0 -2
BITMAP
3C
7E
C6
C0
C0
C6
7E
3C
08
38
ENDCHAR
STARTCHAR egrave
ENCODING 232
SWIDTH 441 0
DWIDTH 7 0
BBX 7 11 0 0
BITMAP
10
18
18
3C
7E
C6
7E
C0
C6
7E
3C
ENDCHAR
STARTCHAR eacute
ENCODING 233
SWIDTH 441 0
DWIDTH 7 0
BBX 7 11 0 0
BITMAP
18
18
10
3C
7E
C6
7E
C0
C6
7E
3C
ENDCHAR
STARTCHAR ecircumflex
ENCODING 234
SWIDTH 441 0
DWIDTH 7 0
BBX 7 10 0 0
BITMAP
18
28
3C
7E
C6
7E
C0
C6
7E
3C
ENDCHAR
STARTCHAR edieresis
ENCODING 235
SWIDTH 441 0
DWIDTH 7 0
BBX 7 10 0 0
BITMAP
6C
28
3C
7E
C6
7E
C0
C6
7E
3C
ENDCHAR
STARTCHAR igrave
ENCODING 236
SWIDTH 205 0
DWIDTH 3 0
BBX 2 11 1 0
BITMAP
80
C0
40
00
C0
C0
C0
C0
C0
C0
C0
ENDCHAR
STARTCHAR iacute
ENCODING 237
SWIDTH 205 0
DWIDTH 3 0
BBX 3 11 0 0
BITMAP
20
C0
80
00
C0
C0
C0
C0
C0
C0
C0
ENDCHAR
STARTCHAR icircumflex
ENCODING 238
SWIDTH 205 0
DWIDTH 3 0
BBX 3 10 0 0
BITMAP
60
A0
00
60
60
60
60
60
60
60
ENDCHAR
STARTCHAR idieresis
ENCODING 239
SWIDTH 205 0
DWIDTH 3 0
BBX 5 10 -1 0
BITMAP
D8
48
00
30
30
30
30
30
30
30
ENDCHAR
STARTCHAR eth
ENCODING 240
SWIDTH 470 0
DWIDTH 8 0
BBX 7 10 0 0
BITMAP
18
18
2C
3E
7E
C6
C6
C6
7E
3C
ENDCHAR
STARTCHAR ntilde
ENCODING 241
SWIDTH 470 0
DWIDTH 8 0
BBX 7 10 0 0
BITMAP
3C
38
DC
FC
C6
C6
C6
C6
C6
7E
ENDCHAR
STARTCHAR ograve
ENCODING 242
SWIDTH 470 0
DWIDTH 8 0
BBX 7 11 0 0
BITMAP
10
18
18
3C
7E
C6
C6
C6
C6
7E
3C
ENDCHAR
STARTCHAR oacute
ENCODING 243
SWIDTH 470 0
DWIDTH 8 0
BBX 7 11 0 0
BITMAP
18
18
10
3C
7E
C6
C6
C6
C6
7E
3C
ENDCHAR
STARTCHAR ocircumflex
ENCODING 244
SWIDTH 470 0
DWIDTH 8 0
BBX 7 10 0 0
BITMAP
18
28
3C
7E
C6
C6
C6
C6
7E
3C
ENDCHAR
STARTCHAR otilde
ENCODING 245
SWIDTH 470 0
DWIDTH 8 0
BBX 7 10 0 0
BITMAP
3C
38
3C
7E
C6
C6
C6
C6
7E
3C
ENDCHAR
STARTCHAR odieresis
ENCODING 246
SWIDTH 470 0
DWIDTH 8 0
BBX 7 10 0 0
BITMAP
6C
28
3C
7E
C6
C6
C6
C6
7E
3C
ENDCHAR
STARTCHAR divide
ENCODING 247
SWIDTH 500 0
DWIDTH 8 0
BBX 7 7 0 1
BITMAP
18
00
FE
FE
00
18
10
ENDCHAR
STARTCHAR oslash
ENCODING 248
SWIDTH 470 0
DWIDTH 8 0
BBX 7 8 1 0
BITMAP
7A
7E
CC
DC
76
66
FE
F8
ENDCHAR
STARTCHAR ugrave
ENCODING 249
SWIDTH 470 0
DWIDTH 8 0
BBX 7 11 0 0
BITMAP
10
18
18
C6
C6
C6
C6
C6
C6
7E
3E
ENDCHAR
STARTCHAR uacute
ENCODING 250
SWIDTH 470 0
DWIDTH 8 0
BBX 7 11 0 0
BITMAP
18
18
10
C6
C6
C6
C6
C6
C6
7E
3E
ENDCHAR
STARTCHAR ucircumflex
ENCODING 251
SWIDTH 470 0
DWIDTH 8 0
BBX 7 10 0 0
BITMAP
18
28
C6
C6
C6
C6
C6
C6
7E
3E
ENDCHAR
STARTCHAR udieresis
ENCODING 252
SWIDTH 470 0
DWIDTH 8 0
BBX 7 10 0 0
BITMAP
6C
28
C6
C6
C6
C6
C6
C6
7E
3E
ENDCHAR
STARTCHAR yacute
ENCODING 253
SWIDTH 470 0
DWIDTH 8 0
BBX 7 13 0 -2
BITMAP
18
18
10
C6
C6
C6
C6
C6
7C
3C
70
60
40
ENDCHAR
STARTCHAR thorn
ENCODING 254
SWIDTH 470 0
DWIDTH 8 0
BBX 7 12 0 -2
BITMAP
C0
C0
DC
FC
C6
C6
C6
C6
FC
F8
C0
C0
ENDCHAR
STARTCHAR ydieresis
ENCODING 255
SWIDTH 470 0
DWIDTH 8 0
BBX 7 12 0 -2
BITMAP
6C
28
C6
C6
C6
C6
C6
7C
3C
70
60
40
ENDCHAR
STARTCHAR Amacron
ENCODING 256
SWIDTH 470 0
DWIDTH 8 0
BBX 7 12 0 0
BITMAP
3C
3C
18
3C
EE
C6
C6
7E
7E
C6
C6
C6
ENDCHAR
STARTCHAR amacron
ENCODING 257
SWIDTH 470 0
DWIDTH 8 0
BBX 7 10 0 0
BITMAP
3C
3C
3C
7E
C6
06
7E
C6
7E
3E
ENDCHAR
STARTCHAR Abreve
ENCODING 258
SWIDTH 470 0
DWIDTH 8 0
BBX 7 12 0 0
BITMAP
28
18
18
3C
EE
C6
C6
7E
7E
C6
C6
C6
ENDCHAR
STARTCHAR abreve
ENCODING 259
SWIDTH 470 0
DWIDTH 8 0
BBX 7 10 0 0
BITMAP
28
18
3C
7E
C6
06
7E
C6
7E
3E
ENDCHAR
STARTCHAR Aogonek
ENCODING 260
SWIDTH 470 0
DWIDTH 8 0
BBX 7 12 0 -2
BITMAP
18
3C
EE
C6
C6
7E
7E
C6
C6
C6
08
0E
ENDCHAR
STARTCHAR aogonek
ENCODING 261
SWIDTH 470 0
DWIDTH 8 0
BBX 7 10 0 -2
BITMAP
3C
7E
C6
06
7E
C6
7E
3E
18
0C
ENDCHAR
STARTCHAR Cacute
ENCODING 262
SWIDTH 470 0
DWIDTH 8 0
BBX 7 12 0 0
BITMAP
18
18
3C
7E
C6
C0
C0
C0
C6
6C
7E
3C
ENDCHAR
STARTCHAR cacute
ENCODING 263
SWIDTH 441 0
DWIDTH 7 0
BBX 7 11 0 0
BITMAP
18
18
10
3C
7E
C6
C0
C0
C6
7E
3C
ENDCHAR
STARTCHAR Cdotaccent
ENCODING 266
SWIDTH 470 0
DWIDTH 8 0
BBX 7 12 0 0
BITMAP
18
10
3C
7E
C6
C0
C0
C0
C6
6C
7E
3C
ENDCHAR
STARTCHAR cdotaccent
ENCODING 267
SWIDTH 441 0
DWIDTH 7 0
BBX 7 10 0 0
BITMAP
18
10
3C
7E
C6
C0
C0
C6
7E
3C
ENDCHAR
STARTCHAR Ccaron
ENCODING 268
SWIDTH 470 0
DWIDTH 8 0
BBX 7 12 0 0
BITMAP
38
18
3C
7E
C6
C0
C0
C0
C6
6C
7E
3C
ENDCHAR
STARTCHAR ccaron
ENCODING 269
SWIDTH 441 0
DWIDTH 7 0
BBX 7 10 0 0
BITMAP
38
18
3C
7E
C6
C0
C0
C6
7E
3C
ENDCHAR
STARTCHAR Dcaron
ENCODING 270
SWIDTH 470 0
DWIDTH 8 0
BBX 7 12 0 0
BITMAP
38
10
F8
FC
C6
C6
C6
C6
C6
CC
FC
F8
ENDCHAR
STARTCHAR dcaron
ENCODING 271
SWIDTH 588 0
DWIDTH 9 0
BBX 9 10 0 0
BITMAP
0680
0680
3E00
7E00
C600
C600
C600
C600
7E00
3E00
ENDCHAR
STARTCHAR Dcroat
ENCODING 272
SWIDTH 500 0
DWIDTH 8 0
BBX 7 10 1 0
BITMAP
F8
FC
C6
C6
F6
C6
C6
CC
FC
F8
ENDCHAR
STARTCHAR dcroat
ENCODING 273
SWIDTH 470 0
DWIDTH 8 0
BBX 8 10 0 0
BITMAP
06
1F
06
3E
7E
C6
C6
C6
7E
3E
ENDCHAR
STARTCHAR Emacron
ENCODING 274
SWIDTH 441 0
DWIDTH 7 0
BBX 6 12 0 0
BITMAP
78
78
FC
FC
C0
C0
F8
F8
C0
C0
FC
FC
ENDCHAR
STARTCHAR emacron
ENCODING 275
SWIDTH 441 0
DWIDTH 7 0
BBX 7 10 0 0
BITMAP
3C
3C
3C
7E
C6
7E
C0
C6
7E
3C
ENDCHAR
STARTCHAR Edotaccent
ENCODING 278
SWIDTH 441 0
DWIDTH 7 0
BBX 6 12 0 0
BITMAP
30
10
FC
FC
C0
C0
F8
F8
C0
C0
FC
FC
ENDCHAR
STARTCHAR edotaccent
ENCODING 279
SWIDTH 441 0
DWIDTH 7 0
BBX 7 10 0 0
BITMAP
18
10
3C
7E
C6
7E
C0
C6
7E
3C
ENDCHAR
STARTCHAR Eogonek
ENCODING 280
SWIDTH 441 0
DWIDTH 7 0
BBX 6 12 0 -2
BITMAP
FC
FC
C0
C0
F8
F8
C0
C0
FC
FC
30
18
ENDCHAR
STARTCHAR eogonek
ENCODING 281
SWIDTH 441 0
DWIDTH 7 0
BBX 7 10 0 -2
BITMAP
3C
7E
C6
7E
C0
C6
7E
3C
30
18
ENDCHAR
STARTCHAR Ecaron
ENCODING 282
SWIDTH 441 0
DWIDTH 7 0
BBX 6 12 0 0
BITMAP
38
10
FC
FC
C0
C0
F8
F8
C0
C0
FC
FC
ENDCHAR
STARTCHAR ecaron
ENCODING 283
SWIDTH 441 0
DWIDTH 7 0
BBX 7 10 0 0
BITMAP
38
18
3C
7E
C6
7E
C0
C6
7E
3C
ENDCHAR
STARTCHAR Gbreve
ENCODING 286
SWIDTH 470 0
DWIDTH 8 0
BBX 7 12 0 0
BITMAP
28
18
3C
7E
C6
C0
DC
DC
C6
6C
7E
3C
ENDCHAR
STARTCHAR gbreve
ENCODING 287
SWIDTH 470 0
DWIDTH 8 0
BBX 7 12 0 -2
BITMAP
28
18
3E
7E
C6
C6
C6
6C
7E
C6
7E
3C
ENDCHAR
STARTCHAR Gdotaccent
ENCODING 288
SWIDTH 470 0
DWIDTH 8 0
BBX 7 12 0 0
BITMAP
18
10
3C
7E
C6
C0
DC
DC
C6
6C
7E
3C
ENDCHAR
STARTCHAR gdotaccent
ENCODING 289
SWIDTH 470 0
DWIDTH 8 0
BBX 7 12 0 -2
BITMAP
18
10
3E
7E
C6
C6
C6
6C
7E
C6
7E
3C
ENDCHAR
STARTCHAR uni0122
ENCODING 290
SWIDTH 470 0
DWIDTH 8 0
BBX 7 13 0 -3
BITMAP
3C
7E
C6
C0
DC
DC
C6
6C
7E
3C
08
08
10
ENDCHAR
STARTCHAR uni0123
ENCODING 291
SWIDTH 470 0
DWIDTH 8 0
BBX 7 13 0 -2
BITMAP
08
08
08
3E
7E
C6
C6
C6
6C
7E
C6
7E
3C
ENDCHAR
STARTCHAR Hbar
ENCODING 294
SWIDTH 529 0
DWIDTH 8 0
BBX 8 10 0 0
BITMAP
63
FF
63
63
7E
7E
63
63
63
63
ENDCHAR
STARTCHAR hbar
ENCODING 295
SWIDTH 500 0
DWIDTH 8 0
BBX 8 10 0 0
BITMAP
60
F8
60
7C
7E
63
63
63
63
3F
ENDCHAR
STARTCHAR Imacron
ENCODING 298
SWIDTH 205 0
DWIDTH 3 0
BBX 4 12 0 0
BITMAP
F0
F0
60
60
60
60
60
60
60
60
60
60
ENDCHAR
STARTCHAR imacron
ENCODING 299
SWIDTH 205 0
DWIDTH 3 0
BBX 4 10 0 0
BITMAP
F0
F0
00
60
60
60
60
60
60
60
ENDCHAR
STARTCHAR Iogonek
ENCODING 302
SWIDTH 205 0
DWIDTH 3 0
BBX 3 12 1 -2
BITMAP
C0
C0
C0
C0
C0
C0
C0
C0
C0
C0
80
E0
ENDCHAR
STARTCHAR iogonek
ENCODING 303
SWIDTH 205 0
DWIDTH 3 0
BBX 3 12 1 -2
BITMAP
C0
80
00
C0
C0
C0
C0
C0
C0
C0
80
E0
ENDCHAR
STARTCHAR Idotaccent
ENCODING 304
SWIDTH 205 0
DWIDTH 3 0
BBX 2 12 0 0
BITMAP
C0
40
C0
C0
C0
C0
C0
C0
C0
C0
C0
C0
ENDCHAR
STARTCHAR dotlessi
ENCODING 305
SWIDTH 205 0
DWIDTH 3 0
BBX 2 7 0 0
BITMAP
C0
C0
C0
C0
C0
C0
C0
ENDCHAR
STARTCHAR IJ
ENCODING 306
SWIDTH 647 0
DWIDTH 10 0
BBX 9 10 0 0
BITMAP
C180
C180
C180
C180
C180
C180
C180
DD80
CF80
C700
ENDCHAR
STARTCHAR ij
ENCODING 307
SWIDTH 441 0
DWIDTH 7 0
BBX 6 12 0 -2
BITMAP
CC
CC
00
CC
CC
CC
CC
CC
CC
CC
18
08
ENDCHAR
STARTCHAR uni0136
ENCODING 310
SWIDTH 441 0
DWIDTH 7 0
BBX 6 13 0 -3
BITMAP
CC
CC
CC
DC
F8
F8
DC
CC
CC
CC
18
18
10
ENDCHAR
STARTCHAR uni0137
ENCODING 311
SWIDTH 411 0
DWIDTH 7 0
BBX 6 13 0 -3
BITMAP
C0
C0
CC
CC
DC
78
78
D8
CC
CC
10
10
20
ENDCHAR
STARTCHAR Lacute
ENCODING 313
SWIDTH 382 0
DWIDTH 6 0
BBX 5 12 0 0
BITMAP
60
60
C0
C0
C0
C0
C0
C0
C0
C0
F8
F8
ENDCHAR
STARTCHAR lacute
ENCODING 314
SWIDTH 205 0
DWIDTH 3 0
BBX 3 12 0 0
BITMAP
60
40
C0
C0
C0
C0
C0
C0
C0
C0
C0
C0
ENDCHAR
STARTCHAR uni013B
ENCODING 315
SWIDTH 382 0
DWIDTH 6 0
BBX 5 13 0 -3
BITMAP
C0
C0
C0
C0
C0
C0
C0
C0
F8
F8
10
10
20
ENDCHAR
STARTCHAR uni013C
ENCODING 316
SWIDTH 205 0
DWIDTH 3 0
BBX 3 13 0 -3
BITMAP
C0
C0
C0
C0
C0
C0
C0
C0
C0
C0
60
60
40
ENDCHAR
STARTCHAR Lcaron
ENCODING 317
SWIDTH 382 0
DWIDTH 6 0
BBX 5 10 0 0
BITMAP
D8
C8
C0
C0
C0
C0
C0
C0
F8
F8
ENDCHAR
STARTCHAR lcaron
ENCODING 318
SWIDTH 323 0
DWIDTH 5 0
BBX 5 10 0 0
BITMAP
C8
C8
C0
C0
C0
C0
C0
C0
C0
C0
ENDCHAR
STARTCHAR Lslash
ENCODING 321
SWIDTH 500 0
DWIDTH 8 0
BBX 7 10 0 0
BITMAP
30
30
3C
1C
18
70
F0
70
3E
3E
ENDCHAR
STARTCHAR lslash
ENCODING 322
SWIDTH 382 0
DWIDTH 6 0
BBX 6 10 0 0
BITMAP
30
30
3C
1C
18
70
F0
70
30
30
ENDCHAR
STARTCHAR Nacute
ENCODING 323
SWIDTH 529 0
DWIDTH 8 0
BBX 8 12 0 0
BITMAP
0C
08
63
E3
73
F3
DB
DB
CF
CE
C7
C6
ENDCHAR
STARTCHAR nacute
ENCODING 324
SWIDTH 470 0
DWIDTH 8 0
BBX 7 11 0 0
BITMAP
18
18
10
DC
FC
C6
C6
C6
C6
C6
7E
ENDCHAR
STARTCHAR uni0145
ENCODING 325
SWIDTH 529 0
DWIDTH 8 0
BBX 8 13 0 -3
BITMAP
63
E3
73
F3
DB
DB
CF
CE
C7
C6
18
18
08
ENDCHAR
STARTCHAR uni0146
ENCODING 326
SWIDTH 470 0
DWIDTH 8 0
BBX 7 11 0 -3
BITMAP
DC
FC
C6
C6
C6
C6
C6
7E
18
18
10
ENDCHAR
STARTCHAR Ncaron
ENCODING 327
SWIDTH 529 0
DWIDTH 8 0
BBX 8 12 0 0
BITMAP
1C
08
63
E3
73
F3
DB
DB
CF
CE
C7
C6
ENDCHAR
STARTCHAR ncaron
ENCODING 328
SWIDTH 470 0
DWIDTH 8 0
BBX 7 10 0 0
BITMAP
38
10
DC
FC
C6
C6
C6
C6
C6
7E
ENDCHAR
STARTCHAR Eng
ENCODING 330
SWIDTH 529 0
DWIDTH 8 0
BBX 8 11 0 -1
BITMAP
63
E3
73
F3
DB
DB
CF
CE
C7
C6
06
ENDCHAR
STARTCHAR eng
ENCODING 331
SWIDTH 470 0
DWIDTH 8 0
BBX 7 9 0 -1
BITMAP
DC
FC
C6
C6
C6
C6
C6
C6
0C
ENDCHAR
STARTCHAR Omacron
ENCODING 332
SWIDTH 470 0
DWIDTH 8 0
BBX 7 12 0 0
BITMAP
3C
3C
3C
7E
C6
C6
C6
C6
C6
6C
7E
3C
ENDCHAR
STARTCHAR omacron
ENCODING 333
SWIDTH 470 0
DWIDTH 8 0
BBX 7 10 0 0
BITMAP
3C
3C
3C
7E
C6
C6
C6
C6
7E
3C
ENDCHAR
STARTCHAR Ohungarumlaut
ENCODING 336
SWIDTH 470 0
DWIDTH 8 0
BBX 7 12 0 0
BITMAP
36
28
3C
7E
C6
C6
C6
C6
C6
6C
7E
3C
ENDCHAR
STARTCHAR ohungarumlaut
ENCODING 337
SWIDTH 470 0
DWIDTH 8 0
BBX 7 11 0 0
BITMAP
14
6C
78
3C
7E
C6
C6
C6
C6
7E
3C
ENDCHAR
STARTCHAR OE
ENCODING 338
SWIDTH 676 0
DWIDTH 11 0
BBX 10 10 0 0
BITMAP
3FC0
7FC0
C600
C600
C780
C780
C600
6C00
7FC0
3FC0
ENDCHAR
STARTCHAR oe
ENCODING 339
SWIDTH 735 0
DWIDTH 12 0
BBX 11 8 0 0
BITMAP
3F80
7FE0
C660
C7E0
C600
C660
7FE0
3F80
ENDCHAR
STARTCHAR Racute
ENCODING 340
SWIDTH 470 0
DWIDTH 8 0
BBX 7 12 0 0
BITMAP
18
10
F8
FC
C6
C6
CC
FC
FC
CC
C6
C6
ENDCHAR
STARTCHAR racute
ENCODING 341
SWIDTH 352 0
DWIDTH 6 0
BBX 6 11 0 0
BITMAP
18
30
20
D8
7C
C8
C0
C0
C0
C0
C0
ENDCHAR
STARTCHAR uni0156
ENCODING 342
SWIDTH 470 0
DWIDTH 8 0
BBX 7 13 0 -3
BITMAP
F8
FC
C6
C6
CC
FC
FC
CC
C6
C6
18
18
10
ENDCHAR
STARTCHAR uni0157
ENCODING 343
SWIDTH 352 0
DWIDTH 6 0
BBX 6 11 0 -3
BITMAP
D8
7C
C8
C0
C0
C0
C0
C0
60
60
40
ENDCHAR
STARTCHAR Rcaron
ENCODING 344
SWIDTH 470 0
DWIDTH 8 0
BBX 7 12 0 0
BITMAP
38
10
F8
FC
C6
C6
CC
FC
FC
CC
C6
C6
ENDCHAR
STARTCHAR rcaron
ENCODING 345
SWIDTH 352 0
DWIDTH 6 0
BBX 6 10 0 0
BITMAP
70
20
D8
7C
C8
C0
C0
C0
C0
C0
ENDCHAR
STARTCHAR Sacute
ENCODING 346
SWIDTH 500 0
DWIDTH 8 0
BBX 7 12 0 0
BITMAP
18
18
3C
7E
C6
60
7E
7E
06
6E
7E
3C
ENDCHAR
STARTCHAR sacute
ENCODING 347
SWIDTH 470 0
DWIDTH 8 0
BBX 7 11 0 0
BITMAP
18
18
10
3C
7E
C6
7C
3E
C6
7E
3C
ENDCHAR
STARTCHAR Scedilla
ENCODING 350
SWIDTH 500 0
DWIDTH 8 0
BBX 7 12 0 -2
BITMAP
3C
7E
C6
60
7E
7E
06
6E
7E
3C
18
18
ENDCHAR
STARTCHAR scedilla
ENCODING 351
SWIDTH 470 0
DWIDTH 8 0
BBX 7 10 0 -2
BITMAP
3C
7E
C6
7C
3E
C6
7E
3C
18
18
ENDCHAR
STARTCHAR Scaron
ENCODING 352
SWIDTH 500 0
DWIDTH 8 0
BBX 7 12 0 0
BITMAP
38
10
3C
7E
C6
60
7E
7E
06
6E
7E
3C
ENDCHAR
STARTCHAR scaron
ENCODING 353
SWIDTH 470 0
DWIDTH 8 0
BBX 7 10 0 0
BITMAP
38
10
3C
7E
C6
7C
3E
C6
7E
3C
ENDCHAR
STARTCHAR Tcaron
ENCODING 356
SWIDTH 441 0
DWIDTH 7 0
BBX 6 12 0 0
BITMAP
38
10
FC
FC
30
30
30
30
30
30
30
30
ENDCHAR
STARTCHAR tcaron
ENCODING 357
SWIDTH 411 0
DWIDTH 7 0
BBX 5 10 1 0
BITMAP
18
48
C0
F0
C0
C0
C0
C0
70
30
ENDCHAR
STARTCHAR Umacron
ENCODING 362
SWIDTH 470 0
DWIDTH 8 0
BBX 7 12 0 0
BITMAP
3C
3C
C6
C6
C6
C6
C6
C6
C6
6C
7E
3C
ENDCHAR
STARTCHAR umacron
ENCODING 363
SWIDTH 470 0
DWIDTH 8 0
BBX 7 10 0 0
BITMAP
3C
3C
C6
C6
C6
C6
C6
C6
7E
3E
ENDCHAR
STARTCHAR Ubreve
ENCODING 364
SWIDTH 470 0
DWIDTH 8 0
BBX 7 12 0 0
BITMAP
28
18
C6
C6
C6
C6
C6
C6
C6
6C
7E
3C
ENDCHAR
STARTCHAR ubreve
ENCODING 365
SWIDTH 470 0
DWIDTH 8 0
BBX 7 10 0 0
BITMAP
28
18
C6
C6
C6
C6
C6
C6
7E
3E
ENDCHAR
STARTCHAR Uring
ENCODING 366
SWIDTH 470 0
DWIDTH 8 0
BBX 7 13 0 0
BITMAP
38
28
18
C6
C6
C6
C6
C6
C6
C6
6C
7E
3C
ENDCHAR
STARTCHAR uring
ENCODING 367
SWIDTH 470 0
DWIDTH 8 0
BBX 7 11 0 0
BITMAP
38
28
18
C6
C6
C6
C6
C6
C6
7E
3E
ENDCHAR
STARTCHAR Uhungarumlaut
ENCODING 368
SWIDTH 470 0
DWIDTH 8 0
BBX 7 12 0 0
BITMAP
36
28
C6
C6
C6
C6
C6
C6
C6
6C
7E
3C
ENDCHAR
STARTCHAR uhungarumlaut
ENCODING 369
SWIDTH 470 0
DWIDTH 8 0
BBX 7 11 0 0
BITMAP
14
6C
78
C6
C6
C6
C6
C6
C6
7E
3E
ENDCHAR
STARTCHAR Uogonek
ENCODING 370
SWIDTH 470 0
DWIDTH 8 0
BBX 7 12 0 -2
BITMAP
C6
C6
C6
C6
C6
C6
C6
6C
7E
3C
10
1C
ENDCHAR
STARTCHAR uogonek
ENCODING 371
SWIDTH 470 0
DWIDTH 8 0
BBX 7 10 0 -2
BITMAP
C6
C6
C6
C6
C6
C6
7E
3E
18
0C
ENDCHAR
STARTCHAR Wcircumflex
ENCODING 372
SWIDTH 617 0
DWIDTH 10 0
BBX 9 12 0 0
BITMAP
0C00
1400
CD80
CD80
CD80
CD80
CD80
CD80
CD80
7F80
7700
2200
ENDCHAR
STARTCHAR wcircumflex
ENCODING 373
SWIDTH 617 0
DWIDTH 10 0
BBX 9 10 0 0
BITMAP
0C00
1400
CD80
CD80
CD80
CD80
CD80
7D80
7700
2200
ENDCHAR
STARTCHAR Ycircumflex
ENCODING 374
SWIDTH 500 0
DWIDTH 8 0
BBX 7 12 0 0
BITMAP
18
28
C6
C6
C6
C6
EE
7C
38
18
18
18
ENDCHAR
STARTCHAR ycircumflex
ENCODING 375
SWIDTH 470 0
DWIDTH 8 0
BBX 7 12 0 -2
BITMAP
18
28
C6
C6
C6
C6
C6
7C
3C
70
60
40
ENDCHAR
STARTCHAR Ydieresis
ENCODING 376
SWIDTH 500 0
DWIDTH 8 0
BBX 7 12 0 0
BITMAP
6C
24
C6
C6
C6
C6
EE
7C
38
18
18
18
ENDCHAR
STARTCHAR Zacute
ENCODING 377
SWIDTH 500 0
DWIDTH 8 0
BBX 7 12 0 0
BITMAP
18
18
FE
FE
0E
1C
1C
38
70
60
FE
FE
ENDCHAR
STARTCHAR zacute
ENCODING 378
SWIDTH 441 0
DWIDTH 7 0
BBX 6 11 0 0
BITMAP
08
30
30
FC
FC
0C
18
30
60
FC
FC
ENDCHAR
STARTCHAR Zdotaccent
ENCODING 379
SWIDTH 500 0
DWIDTH 8 0
BBX 7 12 0 0
BITMAP
18
10
FE
FE
0E
1C
1C
38
70
60
FE
FE
ENDCHAR
STARTCHAR zdotaccent
ENCODING 380
SWIDTH 441 0
DWIDTH 7 0
BBX 6 10 0 0
BITMAP
30
10
FC
FC
0C
18
30
60
FC
FC
ENDCHAR
STARTCHAR Zcaron
ENCODING 381
SWIDTH 500 0
DWIDTH 8 0
BBX 7 12 0 0
BITMAP
38
10
FE
FE
0E
1C
1C
38
70
60
FE
FE
ENDCHAR
STARTCHAR zcaron
ENCODING 382
SWIDTH 441 0
DWIDTH 7 0
BBX 6 10 0 0
BITMAP
38
10
FC
FC
0C
18
30
60
FC
FC
ENDCHAR
STARTCHAR uni0218
ENCODING 536
SWIDTH 500 0
DWIDTH 8 0
BBX 7 13 0 -3
BITMAP
3C
7E
C6
60
7E
7E
06
6E
7E
3C
08
08
10
ENDCHAR
STARTCHAR uni0219
ENCODING 537
SWIDTH 470 0
DWIDTH 8 0
BBX 7 11 0 -3
BITMAP
3C
7E
C6
7C
3E
C6
7E
3C
08
08
10
ENDCHAR
STARTCHAR uni021A
ENCODING 538
SWIDTH 441 0
DWIDTH 7 0
BBX 6 13 0 -3
BITMAP
FC
FC
30
30
30
30
30
30
30
30
18
18
10
ENDCHAR
STARTCHAR uni021B
ENCODING 539
SWIDTH 352 0
DWIDTH 6 0
BBX 4 12 1 -3
BITMAP
40
C0
F0
C0
C0
C0
C0
70
30
20
20
40
ENDCHAR
STARTCHAR uni0237
ENCODING 567
SWIDTH 235 0
DWIDTH 4 0
BBX 2 9 1 -2
BITMAP
C0
C0
C0
C0
C0
C0
C0
C0
80
ENDCHAR
STARTCHAR circumflex
ENCODING 710
SWIDTH 235 0
DWIDTH 4 0
BBX 3 2 0 8
BITMAP
60
A0
ENDCHAR
STARTCHAR caron
ENCODING 711
SWIDTH 235 0
DWIDTH 4 0
BBX 3 2 0 8
BITMAP
E0
40
ENDCHAR
STARTCHAR breve
ENCODING 728
SWIDTH 235 0
DWIDTH 4 0
BBX 3 2 0 8
BITMAP
A0
60
ENDCHAR
STARTCHAR dotaccent
ENCODING 729
SWIDTH 176 0
DWIDTH 3 0
BBX 2 2 0 8
BITMAP
C0
40
ENDCHAR
STARTCHAR ring
ENCODING 730
SWIDTH 235 0
DWIDTH 4 0
BBX 3 3 0 8
BITMAP
E0
A0
60
ENDCHAR
STARTCHAR ogonek
ENCODING 731
SWIDTH 235 0
DWIDTH 4 0
BBX 3 3 1 -2
BITMAP
40
80
E0
ENDCHAR
STARTCHAR tilde
ENCODING 732
SWIDTH 294 0
DWIDTH 5 0
BBX 4 2 0 8
BITMAP
F0
90
ENDCHAR
STARTCHAR hungarumlaut
ENCODING 733
SWIDTH 411 0
DWIDTH 7 0
BBX 5 3 1 8
BITMAP
78
D8
90
ENDCHAR
STARTCHAR gravecomb
ENCODING 768
SWIDTH 0 0
DWIDTH 0 0
BBX 3 3 0 8
BITMAP
80
C0
60
ENDCHAR
STARTCHAR acutecomb
ENCODING 769
SWIDTH 0 0
DWIDTH 0 0
BBX 3 3 0 8
BITMAP
60
C0
80
ENDCHAR
STARTCHAR uni0302
ENCODING 770
SWIDTH 0 0
DWIDTH 0 0
BBX 3 2 -1 8
BITMAP
60
A0
ENDCHAR
STARTCHAR tildecomb
ENCODING 771
SWIDTH 0 0
DWIDTH 0 0
BBX 4 2 -2 8
BITMAP
F0
90
ENDCHAR
STARTCHAR uni0304
ENCODING 772
SWIDTH 0 0
DWIDTH 0 0
BBX 4 2 -2 8
BITMAP
F0
F0
ENDCHAR
STARTCHAR uni0306
ENCODING 774
SWIDTH 0 0
DWIDTH 0 0
BBX 3 2 -1 8
BITMAP
A0
60
ENDCHAR
STARTCHAR uni0307
ENCODING 775
SWIDTH 0 0
DWIDTH 0 0
BBX 2 2 -1 8
BITMAP
C0
40
ENDCHAR
STARTCHAR uni0308
ENCODING 776
SWIDTH 0 0
DWIDTH 0 0
BBX 5 2 -2 8
BITMAP
D8
48
ENDCHAR
STARTCHAR uni030A
ENCODING 778
SWIDTH 0 0
DWIDTH 0 0
BBX 3 3 -1 8
BITMAP
E0
A0
60
ENDCHAR
STARTCHAR uni030B
ENCODING 779
SWIDTH 0 0
DWIDTH 0 0
BBX 5 3 -2 8
BITMAP
78
D8
90
ENDCHAR
STARTCHAR uni030C
ENCODING 780
SWIDTH 0 0
DWIDTH 0 0
BBX 3 2 -1 8
BITMAP
E0
40
ENDCHAR
STARTCHAR uni0312
ENCODING 786
SWIDTH 0 0
DWIDTH 0 0
BBX 1 3 1 8
BITMAP
80
80
80
ENDCHAR
STARTCHAR uni0326
ENCODING 806
SWIDTH 0 0
DWIDTH 0 0
BBX 2 3 0 -3
BITMAP
40
40
80
ENDCHAR
STARTCHAR uni0327
ENCODING 807
SWIDTH 0 0
DWIDTH 0 0
BBX 3 3 0 -2
BITMAP
C0
60
C0
ENDCHAR
STARTCHAR uni0328
ENCODING 808
SWIDTH 0 0
DWIDTH 0 0
BBX 3 3 0 -2
BITMAP
40
80
E0
ENDCHAR
STARTCHAR Wgrave
ENCODING 7808
SWIDTH 617 0
DWIDTH 10 0
BBX 9 12 0 0
BITMAP
0C00
0C00
CD80
CD80
CD80
CD80
CD80
CD80
CD80
7F80
7700
2200
ENDCHAR
STARTCHAR wgrave
ENCODING 7809
SWIDTH 617 0
DWIDTH 10 0
BBX 9 11 0 0
BITMAP
0800
0C00
0C00
CD80
CD80
CD80
CD80
CD80
7D80
7700
2200
ENDCHAR
STARTCHAR Wacute
ENCODING 7810
SWIDTH 617 0
DWIDTH 10 0
BBX 9 12 0 0
BITMAP
0C00
1800
CD80
CD80
CD80
CD80
CD80
CD80
CD80
7F80
7700
2200
ENDCHAR
STARTCHAR wacute
ENCODING 7811
SWIDTH 617 0
DWIDTH 10 0
BBX 9 11 0 0
BITMAP
0C00
0C00
0800
CD80
CD80
CD80
CD80
CD80
7D80
7700
2200
ENDCHAR
STARTCHAR Wdieresis
ENCODING 7812
SWIDTH 617 0
DWIDTH 10 0
BBX 9 12 0 0
BITMAP
3600
1200
CD80
CD80
CD80
CD80
CD80
CD80
CD80
7F80
7700
2200
ENDCHAR
STARTCHAR wdieresis
ENCODING 7813
SWIDTH 617 0
DWIDTH 10 0
BBX 9 10 0 0
BITMAP
3600
1200
CD80
CD80
CD80
CD80
CD80
7D80
7700
2200
ENDCHAR
STARTCHAR uni1E9E
ENCODING 7838
SWIDTH 500 0
DWIDTH 8 0
BBX 7 10 0 0
BITMAP
FE
FE
CC
D8
D8
C6
C6
C6
DE
CC
ENDCHAR
STARTCHAR Ygrave
ENCODING 7922
SWIDTH 500 0
DWIDTH 8 0
BBX 7 12 0 0
BITMAP
18
18
C6
C6
C6
C6
EE
7C
38
18
18
18
ENDCHAR
STARTCHAR ygrave
ENCODING 7923
SWIDTH 470 0
DWIDTH 8 0
BBX 7 13 0 -2
BITMAP
10
18
18
C6
C6
C6
C6
C6
7C
3C
70
60
40
ENDCHAR
STARTCHAR uni200A
ENCODING 8202
SWIDTH 29 0
DWIDTH 0 0
BBX 1 1 0 0
BITMAP
00
ENDCHAR
STARTCHAR endash
ENCODING 8211
SWIDTH 470 0
DWIDTH 8 0
BBX 6 2 1 4
BITMAP
FC
FC
ENDCHAR
STARTCHAR emdash
ENCODING 8212
SWIDTH 617 0
DWIDTH 10 0
BBX 8 2 1 4
BITMAP
FF
FF
ENDCHAR
STARTCHAR quoteleft
ENCODING 8216
SWIDTH 205 0
DWIDTH 3 0
BBX 2 3 0 7
BITMAP
40
40
C0
ENDCHAR
STARTCHAR quoteright
ENCODING 8217
SWIDTH 205 0
DWIDTH 3 0
BBX 2 3 0 7
BITMAP
C0
C0
40
ENDCHAR
STARTCHAR quotesinglbase
ENCODING 8218
SWIDTH 205 0
DWIDTH 3 0
BBX 2 3 0 -1
BITMAP
C0
C0
80
ENDCHAR
STARTCHAR quotedblleft
ENCODING 8220
SWIDTH 382 0
DWIDTH 6 0
BBX 5 3 0 7
BITMAP
48
48
D8
ENDCHAR
STARTCHAR quotedblright
ENCODING 8221
SWIDTH 382 0
DWIDTH 6 0
BBX 5 3 0 7
BITMAP
D8
D8
48
ENDCHAR
STARTCHAR quotedblbase
ENCODING 8222
SWIDTH 382 0
DWIDTH 6 0
BBX 5 3 0 -1
BITMAP
D8
D8
90
ENDCHAR
STARTCHAR bullet
ENCODING 8226
SWIDTH 352 0
DWIDTH 6 0
BBX 4 5 1 3
BITMAP
60
F0
F0
F0
60
ENDCHAR
STARTCHAR ellipsis
ENCODING 8230
SWIDTH 617 0
DWIDTH 10 0
BBX 9 2 0 0
BITMAP
CD80
CD80
ENDCHAR
STARTCHAR guilsinglleft
ENCODING 8249
SWIDTH 323 0
DWIDTH 5 0
BBX 4 7 0 1
BITMAP
10
30
60
C0
60
30
10
ENDCHAR
STARTCHAR guilsinglright
ENCODING 8250
SWIDTH 323 0
DWIDTH 5 0
BBX 4 7 0 1
BITMAP
40
C0
60
30
60
C0
40
ENDCHAR
STARTCHAR Euro
ENCODING 8364
SWIDTH 529 0
DWIDTH 8 0
BBX 7 10 1 0
BITMAP
78
FC
C6
F0
C0
F0
C6
6C
FC
78
ENDCHAR
STARTCHAR trademark
ENCODING 8482
SWIDTH 1088 0
DWIDTH 17 0
BBX 16 10 0 0
BITMAP
FD83
FDC7
30FF
31FF
31BB
3193
3183
3183
3183
3183
ENDCHAR
STARTCHAR minus
ENCODING 8722
SWIDTH 470 0
DWIDTH 8 0
BBX 6 2 1 4
BITMAP
FC
FC
ENDCHAR
STARTCHAR uni2698
ENCODING 9880
SWIDTH 441 0
DWIDTH 7 0
BBX 6 10 0 0
BITMAP
10
30
68
30
10
00
94
DC
78
38
ENDCHAR
STARTCHAR .notdef
ENCODING 9882
SWIDTH 411 0
DWIDTH 7 0
BBX 5 10 1 0
BITMAP
F8
F8
90
90
90
90
90
90
F8
F8
ENDCHAR
STARTCHAR uni004A0301
ENCODING 9883
SWIDTH 441 0
DWIDTH 7 0
BBX 6 12 1 0
BITMAP
0C
10
18
18
18
18
18
18
18
F8
F8
70
ENDCHAR
STARTCHAR i.loclTRK
ENCODING 9884
SWIDTH 205 0
DWIDTH 3 0
BBX 2 10 0 0
BITMAP
C0
40
00
C0
C0
C0
C0
C0
C0
C0
ENDCHAR
STARTCHAR uni006A0301
ENCODING 9885
SWIDTH 235 0
DWIDTH 4 0
BBX 3 13 1 -2
BITMAP
20
C0
80
00
C0
C0
C0
C0
C0
C0
C0
C0
80
ENDCHAR
STARTCHAR zero.tf
ENCODING 9886
SWIDTH 441 0
DWIDTH 7 0
BBX 6 10 0 0
BITMAP
38
7C
CC
CC
CC
CC
CC
7C
7C
38
ENDCHAR
STARTCHAR one.tf
ENCODING 9887
SWIDTH 441 0
DWIDTH 7 0
BBX 6 10 0 0
BITMAP
78
78
30
30
30
30
30
30
FC
FC
ENDCHAR
STARTCHAR two.tf
ENCODING 9888
SWIDTH 441 0
DWIDTH 7 0
BBX 6 10 0 0
BITMAP
38
7C
CC
0C
18
18
30
60
FC
FC
ENDCHAR
STARTCHAR three.tf
ENCODING 9889
SWIDTH 441 0
DWIDTH 7 0
BBX 6 10 0 0
BITMAP
38
7C
CC
1C
38
1C
0C
7C
7C
38
ENDCHAR
STARTCHAR four.tf
ENCODING 9890
SWIDTH 441 0
DWIDTH 7 0
BBX 7 10 0 0
BITMAP
0C
1C
3E
7C
CC
CC
FC
FC
0C
0C
ENDCHAR
STARTCHAR five.tf
ENCODING 9891
SWIDTH 441 0
DWIDTH 7 0
BBX 6 10 0 0
BITMAP
FC
FC
C0
78
7C
1C
0C
7C
7C
38
ENDCHAR
STARTCHAR six.tf
ENCODING 9892
SWIDTH 441 0
DWIDTH 7 0
BBX 6 10 0 0
BITMAP
38
7C
CC
78
7C
7C
CC
7C
7C
38
ENDCHAR
STARTCHAR seven.tf
ENCODING 9893
SWIDTH 441 0
DWIDTH 7 0
BBX 6 10 0 0
BITMAP
FC
FC
0C
1C
18
1C
18
30
30
30
ENDCHAR
STARTCHAR eight.tf
ENCODING 9894
SWIDTH 441 0
DWIDTH 7 0
BBX 6 10 0 0
BITMAP
38
7C
CC
7C
78
7C
CC
7C
7C
38
ENDCHAR
STARTCHAR nine.tf
ENCODING 9895
SWIDTH 441 0
DWIDTH 7 0
BBX 7 10 0 0
BITMAP
38
7C
CC
CC
FC
7E
0C
7C
7C
38
ENDCHAR
STARTCHAR periodcentered.loclCAT
ENCODING 9896
SWIDTH 470 0
DWIDTH 8 0
BBX 2 2 3 4
BITMAP
C0
C0
ENDCHAR
STARTCHAR periodcentered.loclCAT.case
ENCODING 9897
SWIDTH 470 0
DWIDTH 8 0
BBX 2 2 3 4
BITMAP
C0
C0
ENDCHAR
STARTCHAR uni0308.case
ENCODING 9898
SWIDTH 0 0
DWIDTH 0 0
BBX 5 2 -2 10
BITMAP
D8
48
ENDCHAR
STARTCHAR uni0307.case
ENCODING 9899
SWIDTH 0 0
DWIDTH 0 0
BBX 2 2 -1 10
BITMAP
C0
40
ENDCHAR
STARTCHAR gravecomb.case
ENCODING 9900
SWIDTH 0 0
DWIDTH 0 0
BBX 3 2 -1 10
BITMAP
C0
20
ENDCHAR
STARTCHAR acutecomb.case
ENCODING 9901
SWIDTH 0 0
DWIDTH 0 0
BBX 2 2 0 10
BITMAP
C0
80
ENDCHAR
STARTCHAR uni030B.case
ENCODING 9902
SWIDTH 0 0
DWIDTH 0 0
BBX 5 2 -1 10
BITMAP
D8
90
ENDCHAR
STARTCHAR uni0302.case
ENCODING 9903
SWIDTH 0 0
DWIDTH 0 0
BBX 3 2 -1 10
BITMAP
60
A0
ENDCHAR
STARTCHAR uni030C.case
ENCODING 9904
SWIDTH 0 0
DWIDTH 0 0
BBX 3 2 -1 10
BITMAP
E0
40
ENDCHAR
STARTCHAR uni0306.case
ENCODING 9905
SWIDTH 0 0
DWIDTH 0 0
BBX 3 2 -1 10
BITMAP
A0
60
ENDCHAR
STARTCHAR uni030A.case
ENCODING 9906
SWIDTH 0 0
DWIDTH 0 0
BBX 3 3 -1 10
BITMAP
E0
A0
60
ENDCHAR
STARTCHAR tildecomb.case
ENCODING 9907
SWIDTH 0 0
DWIDTH 0 0
BBX 4 2 -2 10
BITMAP
F0
90
ENDCHAR
STARTCHAR uni0304.case
ENCODING 9908
SWIDTH 0 0
DWIDTH 0 0
BBX 4 2 -2 10
BITMAP
F0
F0
ENDCHAR
ENDFONT
